<svg xmlns="http://www.w3.org/2000/svg" viewBox="0 0 221.74021 160.27563">
  <defs>
    <style>
      .cls-1 {
        isolation: isolate;
      }

      .cls-2 {
        opacity: 0.75;
        mix-blend-mode: multiply;
      }

      .cls-3 {
        fill: #ca2a2e;
      }

      .cls-4 {
        fill: #0f3d56;
      }

      .cls-5 {
        fill: #b72033;
      }

      .cls-6, .cls-7 {
        fill: #f6f3df;
        stroke: #0f3d56;
        stroke-miterlimit: 10;
      }

      .cls-6 {
        stroke-width: 0.57861px;
      }

      .cls-7 {
        stroke-width: 0.55126px;
      }
    </style>
  </defs>
  <title>ff-hero-logo</title>
  <g class="cls-1">
    <g id="Layer_2" data-name="Layer 2">
      <g id="Layer_1-2" data-name="Layer 1">
        <g>
          <g>
            <g class="cls-2">
              <path class="cls-3" d="M27.36261,60.95624l3.783-1.50281-.02406,2.57936-3.78146,1.50206-.09021,9.84081c.06014,9.01987-4.33627,12.8126-7.91325,14.23272A9.03628,9.03628,0,1,1,12.8803,70.7527L14.3177,74.371a5.17413,5.17413,0,1,0,3.55743,9.67693c4.15284-1.64866,5.32261-6.25407,5.15722-12.42393l.03157-6.39089-3.65967,1.45319.02406-2.57936,3.61757-1.43665.07367-13.11858c-4.54828,1.85389-10.89782,1.805-14.3921,3.19281C5.19108,54.14886,4.6919,56.965,5.45871,58.89786a3.4165,3.4165,0,0,0,4.59639,1.98245,5.23141,5.23141,0,0,0,2.62672-2.61394l2.88684,1.99523a7.28287,7.28287,0,0,1-4.13329,3.97391,7.17842,7.17842,0,0,1-9.47094-3.94986c-1.4359-3.61832-.209-8.67555,5.42485-10.9121,4.97378-1.97568,12.62842-1.39831,16.70157-4.44378a6.823,6.823,0,0,1,3.54239-3.54841L29.442,43.66152s-1.92606,1.62159-1.96816,5.58874Z"/>
              <path class="cls-3" d="M56.19191,57.3537c-.75328,5.2963-3.32588,9.36418-7.90272,9.94456-.863,3.34091-2.63574,6.18716-5.67745,7.39527-3.04321,1.20811-6.121.28868-7.70425-3.69876-2.10649-5.30382-2.38766-18.23445,5.13617-21.222,3.04321-1.20811,6.0804-.2729,7.64712,3.674a24.98279,24.98279,0,0,1,1.13218,10.879c2.35759-.41348,4.35131-2.82294,5.09407-7.54487A2.44964,2.44964,0,0,1,56.19191,57.3537Zm-11.94279,9.598a2.73848,2.73848,0,0,1,.4225-5.16624,22.67227,22.67227,0,0,0-.98333-7.272c-.68562-1.72684-1.70354-2.13205-2.64928-1.75691C37.42144,54.194,37.37483,66.06384,38.89342,69.8874c.621,1.5622,1.696,2.22978,2.80565,1.78924C42.97259,71.17069,43.80706,69.316,44.24911,66.95169Z"/>
              <path class="cls-3" d="M53.923,56.77483c.36687-2.43051.60443-5.66693.75178-8.771a4.2037,4.2037,0,0,1-2.31849-2.12528c-.76832-1.93208.45408-4.60691,1.92757-5.81127l2.84023.68036-.10826,4.27989c2.2809.95025,6.23076,1.42838,7.27574,4.05962a6.14586,6.14586,0,0,1,.33981,2.29218l-.03759,5.29855c-.03007,5.43838,1.22691,5.60528,1.884,5.34441,1.5622-.621,2.58312-4.643,3.68373-11.697a2.45123,2.45123,0,0,1,2.27489.57211c-.99385,6.72543-2.1516,12.80133-6.05635,14.353-3.2492,1.2893-6.20971-.533-6.09845-8.76351l.05112-4.3047a4.35871,4.35871,0,0,0-.18494-1.54491c-.32627-.82245-1.42688-1.19458-3.183-1.78172-.14585,2.62823-.35785,5.56844-.76832,8.49137A2.44641,2.44641,0,0,1,53.923,56.77483Z"/>
              <path class="cls-3" d="M93.34643,42.59023c-1.29607,9.08151-5.47146,13.5486-8.57632,16.876,0,0,.021,1.61031-.03308,3.392-.14284,4.43551-.76982,8.73043-4.88056,10.3633-2.71393,1.0773-5.01137.08645-5.76015-2.28166-.81643-2.532.70968-5.04144,2.49742-6.89383,1.21037-1.38553,3.21161-3.17928,3.88671-4.11375l.009-3.574s-.51723,3.49052-3.395,4.63323c-2.50794.99611-4.65653-.57812-5.66993-3.12741-1.79525-4.52271-2.98307-19.37716,3.595-21.98959a4.48046,4.48046,0,0,1,5.59927,1.63212l.0406-3.253,4.31673-1.71481-.18043,23.39467A25.3119,25.3119,0,0,0,91.073,42.01737,2.44776,2.44776,0,0,1,93.34643,42.59023ZM80.5436,51.10114l.06465-9.78293s-1.13369-2.9763-3.18906-2.15987c-3.86566,1.53439-3.4176,13.20879-2.12754,16.45649.45708,1.151,1.12166,1.50582,2.0268,1.14647C79.7437,55.79827,80.5436,51.10114,80.5436,51.10114ZM78.14692,70.47379c1.13519-.49843,2.38766-2.37638,2.317-6.86977A24.53312,24.53312,0,0,0,77.565,66.61113c-.74276,1.00889-1.469,2.29669-1.07655,3.28378A1.16961,1.16961,0,0,0,78.14692,70.47379Z"/>
              <path class="cls-3" d="M113.54528,34.56271c-.75328,5.297-3.32588,9.36494-7.90272,9.94531-.863,3.34091-2.63574,6.18716-5.67745,7.39527-3.04321,1.20811-6.121.28868-7.70425-3.69876-2.10649-5.30382-2.38766-18.23445,5.13617-21.222,3.04321-1.20811,6.0804-.2729,7.64712,3.674a24.98279,24.98279,0,0,1,1.13218,10.879c2.35759-.41273,4.35131-2.82294,5.09407-7.54487A2.45123,2.45123,0,0,1,113.54528,34.56271Zm-11.94279,9.59874a2.73848,2.73848,0,0,1,.4225-5.16624,22.67227,22.67227,0,0,0-.98333-7.272c-.68562-1.72684-1.70354-2.13205-2.64928-1.75691C94.77481,31.40373,94.7282,43.2736,96.2468,47.09715c.621,1.5622,1.69451,2.22978,2.80565,1.78924C100.326,48.38044,101.16044,46.5258,101.60249,44.16145Z"/>
              <path class="cls-3" d="M125.09264,29.97309c-.95326,6.70965-3.01464,13.14414-7.53736,14.94014-3.49428,1.38779-6.38262-.13081-6.345-8.665l.0842-14.17032L107.513,23.57994l.02255-2.57936,3.78146-1.50206.03458-6.86677,4.31673-1.71481-.03458,6.86752,3.61907-1.43665-.02255,2.57936-3.61907,1.43665-.08871,16.07533c-.03007,5.43838,1.14421,5.63836,2.09,5.26247,2.42525-.963,4.28666-6.224,5.20533-12.30064A2.4522,2.4522,0,0,1,125.09264,29.97309Z"/>
              <path class="cls-3" d="M136.655,25.3797c-.95326,6.70965-3.01464,13.14414-7.53736,14.94014-3.49428,1.38779-6.38262-.13081-6.345-8.665l.0842-14.17032-3.78146,1.50206.02255-2.57936,3.78146-1.50206.03458-6.86677,4.31673-1.71481-.03458,6.86752,3.61907-1.43665-.02255,2.57936-3.61907,1.43665-.08871,16.07533c-.03007,5.43838,1.14421,5.63836,2.09,5.26247,2.42525-.963,4.28666-6.224,5.20533-12.30064A2.4522,2.4522,0,0,1,136.655,25.3797Z"/>
              <path class="cls-3" d="M154.25573,18.38664c-.87808,6.06011-3.38452,13.29074-9.9626,15.90318-4.15284,1.64941-7.26371.40972-8.88-3.66042C133.063,24.70912,133.83134,12.504,140.7387,9.7607c4.02955-1.59979,7.48924,1.1194,7.06373,6.99983-.35785,5.33088-3.46872,7.80349-8.95973,9.31833,0,0,.07969,7.1547,5.30156,5.08129,3.98745-1.584,6.82617-6.89985,7.83657-13.34562A2.45023,2.45023,0,0,1,154.25573,18.38664Zm-15.604,5.05422c4.22351-.86831,4.9377-3.62659,5.09256-6.3533.18795-3.12139-.44957-4.24831-1.89-3.677C138.27887,14.83146,138.65176,23.44086,138.65176,23.44086Z"/>
              <path class="cls-3" d="M174.92219,10.17568c-1.01942,7.02088-2.85075,13.07873-6.96149,14.7116-3.41309,1.35471-6.28339-.36085-6.22174-8.71465l.02857-4.72344a20.2144,20.2144,0,0,0-.227-4.76479c-.22854-.57586-.85252-.70893-1.51108-.44731-1.10963.44054-2.69138,2.211-3.70027,4.94371l-.09322,17.74354-4.31673,1.71406L152.038,5.88828l4.31673-1.71406-.01353,2.48088c1.32915-2.76505,3.04922-4.30545,4.65352-4.94221a3.21339,3.21339,0,0,1,4.46408,1.89223,16.39989,16.39989,0,0,1,.651,5.59551l-.05864,7.163c-.04661,5.63535,1.3081,5.573,1.96666,5.31133,2.096-.83222,3.72883-6.19242,4.62947-12.0721A2.45061,2.45061,0,0,1,174.92219,10.17568Z"/>
            </g>
            <g>
              <path class="cls-4" d="M25.94857,59.5422l3.783-1.50281-.02406,2.57936L25.926,62.12081l-.09021,9.84081c.06014,9.01987-4.33627,12.8126-7.91325,14.23272a9.03628,9.03628,0,1,1-6.4563-16.85568L12.90367,72.957a5.17413,5.17413,0,1,0,3.55743,9.67693c4.15284-1.64866,5.32261-6.25407,5.15722-12.42393l.03157-6.39089-3.65967,1.45319.02406-2.57936,3.61757-1.43665.07367-13.11858c-4.54828,1.85389-10.89782,1.805-14.3921,3.19281C3.777,52.73483,3.27786,55.551,4.04468,57.48383a3.4165,3.4165,0,0,0,4.59639,1.98245,5.23141,5.23141,0,0,0,2.62672-2.61394l2.88684,1.99523a7.28287,7.28287,0,0,1-4.13329,3.97391A7.17842,7.17842,0,0,1,.5504,58.87161c-1.4359-3.61832-.209-8.67555,5.42485-10.9121,4.97378-1.97568,12.62842-1.39831,16.70157-4.44378a6.823,6.823,0,0,1,3.54239-3.54841L28.028,42.24748s-1.92606,1.62159-1.96816,5.58874Z"/>
              <path class="cls-4" d="M54.77787,55.93967c-.75328,5.2963-3.32588,9.36418-7.90272,9.94456-.863,3.34091-2.63574,6.18716-5.67745,7.39527-3.04321,1.20811-6.121.28868-7.70425-3.69876-2.10649-5.30382-2.38766-18.23445,5.13617-21.222,3.04321-1.20811,6.0804-.2729,7.64712,3.674a24.98279,24.98279,0,0,1,1.13218,10.879c2.35759-.41348,4.35131-2.82294,5.09407-7.54487A2.44964,2.44964,0,0,1,54.77787,55.93967Zm-11.94279,9.598a2.73848,2.73848,0,0,1,.4225-5.16624,22.67227,22.67227,0,0,0-.98333-7.272c-.68562-1.72684-1.70354-2.13205-2.64928-1.75691-3.61757,1.43741-3.66418,13.30728-2.14558,17.13083.621,1.5622,1.696,2.22978,2.80565,1.78924C41.55855,69.75665,42.393,67.902,42.83508,65.53766Z"/>
              <path class="cls-4" d="M52.509,55.3608c.36687-2.43051.60443-5.66693.75178-8.771a4.2037,4.2037,0,0,1-2.31849-2.12528c-.76832-1.93208.45408-4.60691,1.92757-5.81127l2.84023.68036-.10826,4.27989c2.2809.95025,6.23076,1.42838,7.27574,4.05962a6.14586,6.14586,0,0,1,.33981,2.29218l-.03759,5.29855c-.03007,5.43838,1.22691,5.60528,1.884,5.34441,1.5622-.621,2.58312-4.643,3.68373-11.697a2.45123,2.45123,0,0,1,2.27489.57211c-.99385,6.72543-2.1516,12.80133-6.05635,14.353-3.2492,1.2893-6.20971-.533-6.09845-8.76351l.05112-4.3047a4.35871,4.35871,0,0,0-.18494-1.54491c-.32627-.82245-1.42688-1.19458-3.183-1.78172-.14585,2.62823-.35785,5.56844-.76832,8.49137A2.44641,2.44641,0,0,1,52.509,55.3608Z"/>
              <path class="cls-4" d="M91.93239,41.17619c-1.29607,9.08151-5.47146,13.5486-8.57632,16.876,0,0,.021,1.61031-.03308,3.392-.14284,4.43551-.76982,8.73043-4.88056,10.3633-2.71393,1.0773-5.01137.08645-5.76015-2.28166-.81643-2.532.70968-5.04144,2.49742-6.89383,1.21037-1.38553,3.21161-3.17928,3.88671-4.11375l.009-3.574s-.51723,3.49052-3.395,4.63323c-2.50794.99611-4.65653-.57812-5.66993-3.12741-1.79525-4.52271-2.98307-19.37716,3.595-21.98959a4.48046,4.48046,0,0,1,5.59927,1.63212l.0406-3.253,4.31673-1.71481-.18043,23.39467A25.3119,25.3119,0,0,0,89.659,40.60334,2.44776,2.44776,0,0,1,91.93239,41.17619ZM79.12956,49.68711l.06465-9.78293s-1.13369-2.9763-3.18906-2.15987c-3.86566,1.53439-3.4176,13.20879-2.12754,16.45649.45708,1.151,1.12166,1.50582,2.0268,1.14647C78.32967,54.38423,79.12956,49.68711,79.12956,49.68711ZM76.73288,69.05975c1.13519-.49843,2.38766-2.37638,2.317-6.86977A24.53312,24.53312,0,0,0,76.151,65.1971c-.74276,1.00889-1.469,2.29669-1.07655,3.28378A1.16961,1.16961,0,0,0,76.73288,69.05975Z"/>
              <path class="cls-4" d="M112.13125,33.14868c-.75328,5.297-3.32588,9.36494-7.90272,9.94531-.863,3.34091-2.63574,6.18716-5.67745,7.39527-3.04321,1.20811-6.121.28868-7.70425-3.69876-2.10649-5.30382-2.38766-18.23445,5.13617-21.222,3.04321-1.20811,6.0804-.2729,7.64712,3.674a24.98279,24.98279,0,0,1,1.13218,10.879c2.35759-.41273,4.35131-2.82294,5.09407-7.54487A2.45123,2.45123,0,0,1,112.13125,33.14868Zm-11.94279,9.59874a2.73848,2.73848,0,0,1,.4225-5.16624,22.67227,22.67227,0,0,0-.98333-7.272c-.68562-1.72684-1.70354-2.13205-2.64928-1.75691-3.61757,1.43741-3.66418,13.30728-2.14558,17.13083.621,1.5622,1.69451,2.22978,2.80565,1.78924C98.91193,46.96641,99.7464,45.11177,100.18845,42.74742Z"/>
              <path class="cls-4" d="M123.6786,28.55905c-.95326,6.70965-3.01464,13.14414-7.53736,14.94014-3.49428,1.38779-6.38262-.13081-6.345-8.665l.0842-14.17032L106.099,22.16591l.02255-2.57936,3.78146-1.50206.03458-6.86677,4.31673-1.71481-.03458,6.86752,3.61907-1.43665-.02255,2.57936-3.61907,1.43665-.08871,16.07533c-.03007,5.43838,1.14421,5.63836,2.09,5.26247,2.42525-.963,4.28666-6.224,5.20533-12.30064A2.4522,2.4522,0,0,1,123.6786,28.55905Z"/>
              <path class="cls-4" d="M135.241,23.96567c-.95326,6.70965-3.01464,13.14414-7.53736,14.94014-3.49428,1.38779-6.38262-.13081-6.345-8.665l.0842-14.17032-3.78146,1.50206.02255-2.57936,3.78146-1.50206.03458-6.86677,4.31673-1.71481-.03458,6.86752,3.61907-1.43665-.02255,2.57936-3.61907,1.43665-.08871,16.07533c-.03007,5.43838,1.14421,5.63836,2.09,5.26247,2.42525-.963,4.28666-6.224,5.20533-12.30064A2.4522,2.4522,0,0,1,135.241,23.96567Z"/>
              <path class="cls-4" d="M152.84169,16.9726c-.87808,6.06011-3.38452,13.29074-9.9626,15.90318-4.15284,1.64941-7.26371.40972-8.88-3.66042-2.35007-5.92028-1.58175-18.12544,5.32562-20.86869,4.02955-1.59979,7.48924,1.1194,7.06373,6.99983-.35785,5.33088-3.46872,7.80349-8.95973,9.31833,0,0,.07969,7.1547,5.30156,5.08129,3.98745-1.584,6.82617-6.89985,7.83657-13.34562A2.45023,2.45023,0,0,1,152.84169,16.9726Zm-15.604,5.05422c4.22351-.86831,4.9377-3.62659,5.09256-6.3533.18795-3.12139-.44957-4.24831-1.89-3.677C136.86484,13.41743,137.23772,22.02683,137.23772,22.02683Z"/>
              <path class="cls-4" d="M173.50815,8.76165c-1.01942,7.02088-2.85075,13.07873-6.96149,14.7116-3.41309,1.35471-6.28339-.36085-6.22174-8.71465l.02857-4.72344a20.2144,20.2144,0,0,0-.227-4.76479c-.22854-.57586-.85252-.70893-1.51108-.44731-1.10963.44054-2.69138,2.211-3.70027,4.94371l-.09322,17.74354-4.31673,1.71406.11878-24.75013,4.31673-1.71406-.01353,2.48088C156.25628,2.476,157.97636.93561,159.58066.29885a3.21339,3.21339,0,0,1,4.46408,1.89223,16.39989,16.39989,0,0,1,.651,5.59551l-.05864,7.163c-.04661,5.63535,1.3081,5.573,1.96666,5.31133,2.096-.83222,3.72883-6.19242,4.62947-12.0721A2.45061,2.45061,0,0,1,173.50815,8.76165Z"/>
            </g>
          </g>
          <g>
            <g class="cls-2">
              <path class="cls-3" d="M145.17732,63.44909l3.783-1.50281-.02406,2.57936-3.78146,1.50206-.09021,9.84081c.06014,9.01987-4.33627,12.8126-7.91325,14.23272a9.03628,9.03628,0,1,1-6.4563-16.85568l1.43741,3.61832a5.17413,5.17413,0,1,0,3.55743,9.67693c4.15284-1.64866,5.32261-6.25407,5.15722-12.42393l.03157-6.39089L137.219,69.17916l.02406-2.57936,3.61757-1.43665.07367-13.11858c-4.54828,1.85389-10.89782,1.805-14.3921,3.19281-3.53638,1.40433-4.03556,4.2205-3.26874,6.15333a3.4165,3.4165,0,0,0,4.59639,1.98245,5.23141,5.23141,0,0,0,2.62672-2.61394l2.88684,1.99523a7.28287,7.28287,0,0,1-4.13329,3.97391,7.17842,7.17842,0,0,1-9.47094-3.94986c-1.4359-3.61832-.209-8.67555,5.42485-10.9121,4.97378-1.97568,12.62842-1.39831,16.70157-4.44378a6.823,6.823,0,0,1,3.54239-3.54841l1.80879,2.28015s-1.92606,1.62159-1.96816,5.58874Z"/>
              <path class="cls-3" d="M165.49947,63.22581c-1.01942,7.02088-2.85075,13.07873-6.96149,14.7116-3.33039,1.32238-6.25933-.18043-6.22174-8.71465l.14133-23.61645,4.31673-1.71481-.14585,25.52221c-.02857,5.20007,1.063,5.67068,1.96666,5.31133,2.09747-.83222,3.72883-6.19242,4.62947-12.0721A2.44964,2.44964,0,0,1,165.49947,63.22581Z"/>
              <path class="cls-3" d="M185.6878,55.20506c-.75328,5.297-3.32588,9.36494-7.90272,9.94531-.863,3.34091-2.63574,6.18716-5.67745,7.39527-3.04321,1.20811-6.121.28868-7.70425-3.69876-2.10649-5.30382-2.38766-18.23445,5.13617-21.222,3.04321-1.20811,6.0804-.2729,7.64712,3.674a24.98279,24.98279,0,0,1,1.13218,10.879c2.35759-.41273,4.35131-2.82294,5.09407-7.54487A2.45123,2.45123,0,0,1,185.6878,55.20506ZM173.745,64.8038a2.73848,2.73848,0,0,1,.4225-5.16624,22.67227,22.67227,0,0,0-.98333-7.272c-.68562-1.72684-1.70354-2.13205-2.64928-1.75691-3.61757,1.43741-3.66418,13.30728-2.14558,17.13083.621,1.5622,1.69451,2.22978,2.80565,1.78924C172.46848,69.02279,173.303,67.16815,173.745,64.8038Z"/>
              <path class="cls-3" d="M205.85357,47.19258c-.75328,5.2963-3.32588,9.36418-7.90272,9.94456-.863,3.34091-2.63574,6.18716-5.67745,7.39527-3.04321,1.20811-6.121.28868-7.70425-3.69876-2.10649-5.30382-2.38766-18.23445,5.13617-21.222,3.04321-1.20811,6.0804-.2729,7.64712,3.674a24.98279,24.98279,0,0,1,1.13218,10.879c2.35759-.41348,4.35131-2.82294,5.09407-7.54487A2.44964,2.44964,0,0,1,205.85357,47.19258Zm-11.94279,9.598a2.73848,2.73848,0,0,1,.4225-5.16624,22.67227,22.67227,0,0,0-.98333-7.272c-.68562-1.72684-1.70354-2.13205-2.64928-1.75691-3.61757,1.43741-3.66418,13.30728-2.14558,17.13083.621,1.5622,1.69451,2.22978,2.80565,1.78924C192.63425,61.00956,193.46873,59.15492,193.91078,56.79057Z"/>
              <path class="cls-3" d="M221.74021,40.87912c-.77885,6.06838-3.47924,11.3767-9.95659,13.52153a10.67275,10.67275,0,0,1,.86455,2.417,27.67047,27.67047,0,0,1,.37288,8.84771c-.418,3.02216-1.42688,5.51657-4.09871,6.57808-2.83722,1.12692-5.5286-.13682-5.48048-6.24805l.20148-34.96909c-.02406-7.36821,1.8163-10.28812,4.77531-11.46391,3.28979-1.3066,5.79774.93446,6.17062,6.06913a85.8466,85.8466,0,0,1-.44505,14.21843c-.60293,4.71367-1.38929,7.16823-6.34052,9.32434l-.03157,2.67784a5.59437,5.59437,0,0,0,4.10021-.1045c4.39942-1.74714,6.733-5.3399,7.593-11.4406A2.45023,2.45023,0,0,1,221.74021,40.87912Zm-13.97411,13.832-.10525,12.32094c.04511,2.02906.55331,2.1125.85853,2.03958,2.43276-.58564,2.04184-8.52144,1.53965-11.46391C209.64555,55.24941,208.784,54.63972,207.7661,54.71114Zm.18343-24.34793-.13081,16.09187c1.9411-1.10361,2.6598-2.76956,3.06276-6.07063a82.84908,82.84908,0,0,0,.43-14.73641c-.1278-1.28179-.47663-2.99961-1.463-2.60718C208.24423,23.67762,207.97359,27.06965,207.94954,30.36321Z"/>
            </g>
            <g>
              <path class="cls-4" d="M143.76329,62.03506l3.783-1.50281-.02406,2.57936-3.78146,1.50206-.09021,9.84081c.06014,9.01987-4.33627,12.8126-7.91325,14.23272a9.03628,9.03628,0,1,1-6.4563-16.85568l1.43741,3.61832a5.17413,5.17413,0,1,0,3.55743,9.67693c4.15284-1.64866,5.32261-6.25407,5.15722-12.42393l.03157-6.39089-3.65967,1.45319.02406-2.57936,3.61757-1.43665.07367-13.11858c-4.54828,1.85389-10.89782,1.805-14.3921,3.19281-3.53638,1.40433-4.03556,4.2205-3.26874,6.15333a3.4165,3.4165,0,0,0,4.59639,1.98245,5.23141,5.23141,0,0,0,2.62672-2.61394l2.88684,1.99523a7.28287,7.28287,0,0,1-4.13329,3.97391,7.17842,7.17842,0,0,1-9.47094-3.94986c-1.4359-3.61832-.209-8.67555,5.42485-10.9121,4.97378-1.97568,12.62842-1.39831,16.70157-4.44378a6.823,6.823,0,0,1,3.54239-3.54841l1.80879,2.28015s-1.92606,1.62159-1.96816,5.58874Z"/>
              <path class="cls-4" d="M164.08543,61.81178c-1.01942,7.02088-2.85075,13.07873-6.96149,14.7116-3.33039,1.32238-6.25933-.18043-6.22174-8.71465l.14133-23.61645,4.31673-1.71481-.14585,25.52221c-.02857,5.20007,1.063,5.67068,1.96666,5.31133,2.09747-.83222,3.72883-6.19242,4.62947-12.0721A2.44964,2.44964,0,0,1,164.08543,61.81178Z"/>
              <path class="cls-4" d="M184.27376,53.791c-.75328,5.297-3.32588,9.36494-7.90272,9.94531-.863,3.34091-2.63574,6.18716-5.67745,7.39527-3.04321,1.20811-6.121.28868-7.70425-3.69876-2.10649-5.30382-2.38766-18.23445,5.13617-21.222,3.04321-1.20811,6.0804-.2729,7.64712,3.674a24.98279,24.98279,0,0,1,1.13218,10.879c2.35759-.41273,4.35131-2.82294,5.09407-7.54487A2.45123,2.45123,0,0,1,184.27376,53.791ZM172.331,63.38977a2.73848,2.73848,0,0,1,.4225-5.16624,22.67227,22.67227,0,0,0-.98333-7.272c-.68562-1.72684-1.70354-2.13205-2.64928-1.75691-3.61757,1.43741-3.66418,13.30728-2.14558,17.13083.621,1.5622,1.69451,2.22978,2.80565,1.78924C171.05444,67.60876,171.88892,65.75412,172.331,63.38977Z"/>
              <path class="cls-4" d="M204.43954,45.77854c-.75328,5.2963-3.32588,9.36418-7.90272,9.94456-.863,3.34091-2.63574,6.18716-5.67745,7.39527-3.04321,1.20811-6.121.28868-7.70425-3.69876-2.10649-5.30382-2.38766-18.23445,5.13617-21.222,3.04321-1.20811,6.0804-.2729,7.64712,3.674a24.98279,24.98279,0,0,1,1.13218,10.879c2.35759-.41348,4.35131-2.82294,5.09407-7.54487A2.44964,2.44964,0,0,1,204.43954,45.77854Zm-11.94279,9.598a2.73848,2.73848,0,0,1,.4225-5.16624,22.67227,22.67227,0,0,0-.98333-7.272c-.68562-1.72684-1.70354-2.13205-2.64928-1.75691-3.61757,1.43741-3.66418,13.30728-2.14558,17.13083.621,1.5622,1.69451,2.22978,2.80565,1.78924C191.22022,59.59553,192.0547,57.74088,192.49674,55.37653Z"/>
              <path class="cls-4" d="M220.32617,39.46509c-.77885,6.06838-3.47924,11.3767-9.95659,13.52153a10.67274,10.67274,0,0,1,.86455,2.417,27.67048,27.67048,0,0,1,.37288,8.84771c-.418,3.02216-1.42688,5.51657-4.09871,6.57808-2.83722,1.12692-5.5286-.13682-5.48048-6.24805l.20148-34.96909c-.02406-7.36821,1.8163-10.28812,4.77531-11.46391,3.28979-1.3066,5.79774.93446,6.17062,6.06913a85.84659,85.84659,0,0,1-.44505,14.21843c-.60293,4.71367-1.38929,7.16823-6.34052,9.32434l-.03157,2.67784a5.59437,5.59437,0,0,0,4.10021-.1045c4.39942-1.74714,6.733-5.3399,7.593-11.4406A2.45023,2.45023,0,0,1,220.32617,39.46509Zm-13.97411,13.832L206.24682,65.618c.04511,2.02906.55331,2.1125.85853,2.03958,2.43276-.58564,2.04184-8.52144,1.53965-11.46391C208.23152,53.83538,207.37,53.22569,206.35207,53.2971Zm.18343-24.34793L206.40469,45.041c1.9411-1.10361,2.6598-2.76956,3.06276-6.07063a82.84907,82.84907,0,0,0,.43-14.73641c-.1278-1.28179-.47663-2.99961-1.463-2.60718C206.8302,22.26358,206.55956,25.65562,206.5355,28.94917Z"/>
            </g>
          </g>
          <g>
            <path class="cls-5" d="M52.82666,103.77386l-2.55908,3.07031h-.36182l-2.54639-3.07031v5.19238H45.2627v-8.48779h1.80957l3.02051,3.54492,3.021-3.54492h1.80957v8.48779H52.82666Z"/>
            <path class="cls-5" d="M59.30518,100.47845h2.47119l3.208,8.48779H62.86231l-.57422-1.56006H58.731l-.58691,1.56006H56.02246Zm-.05029,5.39258h2.52148l-1.23584-3.32031Z"/>
            <path class="cls-5" d="M68.21729,103.81145v5.15479H66.12061v-8.48779h1.82227l4.28125,5.15527v-5.15527H74.3208v8.48779H72.49854Z"/>
            <path class="cls-5" d="M78.65234,105.69622l-3.23242-5.06787v-.1499h2.334l1.94727,3.28271,1.94678-3.28271h2.33447v.1499l-3.23291,5.05518v3.28271H78.65234Z"/>
            <path class="cls-5" d="M95.291,107.9052a6.57808,6.57808,0,0,1-3.65723,1.186,4.37114,4.37114,0,1,1,0-8.7373,5.25446,5.25446,0,0,1,3.33252,1.13574l-.96094,1.58545a3.656,3.656,0,0,0-2.334-.78662,2.43438,2.43438,0,1,0,.09961,4.86768,3.43482,3.43482,0,0,0,1.53516-.36182v-1.248H91.272v-1.59766h4.019Z"/>
            <path class="cls-5" d="M99.03565,105.1845a1.72826,1.72826,0,0,0,1.835,1.97168,1.74873,1.74873,0,0,0,1.87256-1.97168v-4.70605h2.09668v4.84326a3.687,3.687,0,0,1-3.96924,3.78174,3.5931,3.5931,0,0,1-3.93164-3.78174v-4.84326h2.09668Z"/>
            <path class="cls-5" d="M106.83691,100.47845h2.09766v8.48779h-2.09766Z"/>
            <path class="cls-5" d="M113.15332,103.81145v5.15479h-2.09766v-8.48779h1.82227l4.28125,5.15527v-5.15527h2.09766v8.48779h-1.82227Z"/>
            <path class="cls-5" d="M121.37891,108.96624v-8.48779h6.81543v1.82275h-4.80566v1.46h3.89453v1.76025h-3.89453V107.144h4.80566v1.82227Z"/>
            <path class="cls-5" d="M132.16406,100.47845h2.47168l3.207,8.48779H135.7207l-.57324-1.56006h-3.55762l-.58691,1.56006h-2.12207Zm-.0498,5.39258h2.52148l-1.23633-3.32031Z"/>
            <path class="cls-5" d="M141.58789,100.47845h4.21875a2.92225,2.92225,0,0,1,3.13379,3.14551,3.00461,3.00461,0,0,1-3.13379,3.0957h-2.12109v2.24658h-2.09766Zm2.09766,1.82275v2.59619h1.79688a1.29815,1.29815,0,0,0,0-2.59619Z"/>
            <path class="cls-5" d="M150.36328,100.47845h2.09766v8.48779h-2.09766Z"/>
            <path class="cls-5" d="M162.25879,107.9052a6.57678,6.57678,0,0,1-3.65723,1.186,4.37114,4.37114,0,1,1,0-8.7373,5.25792,5.25792,0,0,1,3.333,1.13574l-.96191,1.58545a3.65305,3.65305,0,0,0-2.334-.78662,2.43439,2.43439,0,1,0,.10059,4.86768,3.43954,3.43954,0,0,0,1.53516-.36182v-1.248h-2.03516v-1.59766h4.01953Z"/>
            <path class="cls-5" d="M164.05664,106.44476a5.06585,5.06585,0,0,0,2.68359.84912c.83594,0,1.36034-.2749,1.36034-.81152,0-.37451-.2744-.59912-.96092-.77393l-1.38574-.37451c-1.46-.38672-2.15918-1.16064-2.15918-2.35889,0-1.44775,1.11035-2.60889,3.39453-2.60889a7.30824,7.30824,0,0,1,3.05859.67432l-.58691,1.80957a5.6842,5.6842,0,0,0-2.55859-.68652c-.82422,0-1.17383.26221-1.17383.67432,0,.37451.25.52393.77441.67383l1.50977.437c1.56055.44922,2.23438,1.21045,2.23438,2.38379,0,1.63525-1.43555,2.75879-3.55664,2.75879a7.36368,7.36368,0,0,1-3.12109-.73682Z"/>
            <path class="cls-5" d="M54.793,122.01946l-1.34814,3.27H51.16065l-3.208-8.48779h2.25928l2.28418,6.14111,1.38574-3.40723-.99854-2.73389H55.167l1.99707,5.792,2.15967-5.792h2.29639l-3.28271,8.48779H56.05322Z"/>
            <path class="cls-5" d="M62.71924,125.28948v-8.48779h6.81494v1.82275H64.72852v1.46H68.623v1.76025H64.72852v1.62256h4.80566v1.82227Z"/>
            <path class="cls-5" d="M71.24463,116.80169h4.03174c1.97168,0,3.27.89893,3.27,2.80859a2.62887,2.62887,0,0,1-2.00977,2.54639l2.47168,2.7334v.39941H76.77393l-2.5835-3.0083h-.84912v3.0083H71.24463Zm2.09668,1.82275v2.09668h1.89746a1.034,1.034,0,0,0,1.13574-1.04834,1.02108,1.02108,0,0,0-1.13574-1.04834Z"/>
            <path class="cls-5" d="M80.40674,125.28948v-8.48779h6.81494v1.82275H82.416v1.46h3.89453v1.76025H82.416v1.62256h4.80566v1.82227Z"/>
            <path class="cls-5" d="M98.03125,121.90716H94.02441v3.38232H91.92773v-8.48779h2.09668v3.28271h4.00684v-3.28271h2.09668v8.48779H98.03125Z"/>
            <path class="cls-5" d="M104.50977,116.80169h2.47168l3.207,8.48779h-2.12207l-.57324-1.56006h-3.55762l-.58691,1.56006h-2.12207Zm-.0498,5.39258h2.52148l-1.23633-3.32031Z"/>
            <path class="cls-5" d="M111.32422,116.80169h4.03223c1.97168,0,3.26953.89893,3.26953,2.80859a2.62853,2.62853,0,0,1-2.00879,2.54639l2.4707,2.7334v.39941h-2.2334l-2.584-3.0083h-.84863v3.0083h-2.09766Zm2.09766,1.82275v2.09668h1.89648a1.034,1.034,0,0,0,1.13574-1.04834,1.02108,1.02108,0,0,0-1.13574-1.04834Z"/>
            <path class="cls-5" d="M128.05078,120.0971l-2.55859,3.07031h-.3623l-2.5459-3.07031v5.19238h-2.09766v-8.48779h1.81055l3.02051,3.54492,3.02051-3.54492h1.80957v8.48779h-2.09668Z"/>
            <path class="cls-5" d="M132.26953,125.28948v-8.48779H139.085v1.82275H134.2793v1.46h3.89453v1.76025H134.2793v1.62256H139.085v1.82227Z"/>
            <path class="cls-5" d="M140.79492,116.80169h3.81934c2.50977.0127,4.38184,1.498,4.38184,4.25635a4.02916,4.02916,0,0,1-4.38184,4.23145h-3.81934Zm2.09766,1.82275v4.84277h1.62207a2.42409,2.42409,0,0,0,0-4.84277Z"/>
            <path class="cls-5" d="M153.627,116.80169h2.09766v8.48779H153.627Z"/>
            <path class="cls-5" d="M159.94336,120.1347v5.15479H157.8457v-8.48779H159.668l4.28125,5.15527v-5.15527h2.09766v8.48779h-1.82227Z"/>
            <path class="cls-5" d="M24.5791,134.95989v6.65283H22.48242v-6.65283H19.87354v-1.835h7.23926v1.835Z"/>
            <path class="cls-5" d="M34.58984,138.2304H30.583v3.38232H28.48633v-8.48779H30.583v3.28271h4.00684v-3.28271h2.09668v8.48779H34.58984Z"/>
            <path class="cls-5" d="M38.80908,141.61272v-8.48779H45.624v1.82275H40.81836v1.46h3.89453v1.76025H40.81836v1.62256H45.624v1.82227Z"/>
            <path class="cls-5" d="M57.894,136.42034,55.335,139.49065h-.36182l-2.54639-3.07031v5.19238H50.33008v-8.48779h1.80957l3.02051,3.54492,3.021-3.54492h1.80957v8.48779H57.894Z"/>
            <path class="cls-5" d="M64.37256,133.12493h2.47119l3.208,8.48779H67.92969l-.57422-1.56006H63.79834l-.58691,1.56006H61.08984Zm-.05029,5.39258h2.52148l-1.23584-3.32031Z"/>
            <path class="cls-5" d="M71.188,133.12493h2.09668v3.35791h.88623l2.459-3.35791h2.147v.3125l-2.9209,3.94385,3.14551,3.98193v.24951H76.61719l-2.4834-3.30762h-.84912v3.30762H71.188Z"/>
            <path class="cls-5" d="M80.23779,133.12493h2.09668v8.48779H80.23779Z"/>
            <path class="cls-5" d="M86.55371,136.45794v5.15479H84.457v-8.48779H86.2793l4.28125,5.15527v-5.15527h2.09668v8.48779H90.835Z"/>
            <path class="cls-5" d="M102.45606,140.55169a6.57678,6.57678,0,0,1-3.65723,1.186,4.37114,4.37114,0,1,1,0-8.7373,5.25792,5.25792,0,0,1,3.333,1.13574l-.96191,1.58545a3.65363,3.65363,0,0,0-2.3335-.78662,2.43438,2.43438,0,1,0,.09961,4.86768,3.43482,3.43482,0,0,0,1.53516-.36182v-1.248H98.437v-1.59766h4.019Z"/>
            <path class="cls-5" d="M111.06934,133.00042a4.36867,4.36867,0,1,1-4.35645,4.38086A4.27143,4.27143,0,0,1,111.06934,133.00042Zm0,6.76514a2.39179,2.39179,0,1,0-2.30957-2.38428A2.26882,2.26882,0,0,0,111.06934,139.76556Z"/>
            <path class="cls-5" d="M119.07031,138.84173v2.771h-2.00977v-8.48779H123.626v1.835h-4.55566v2.04688h3.88184v1.835Z"/>
            <path class="cls-5" d="M131.45313,134.95989v6.65283h-2.09668v-6.65283H126.748v-1.835h7.23926v1.835Z"/>
            <path class="cls-5" d="M141.46387,138.2304H137.458v3.38232h-2.09766v-8.48779H137.458v3.28271h4.00586v-3.28271h2.09766v8.48779h-2.09766Z"/>
            <path class="cls-5" d="M145.68359,133.12493h2.09766v8.48779h-2.09766Z"/>
            <path class="cls-5" d="M149.94043,139.09124a5.06585,5.06585,0,0,0,2.68359.84912c.83594,0,1.36035-.2749,1.36035-.81152,0-.37451-.27441-.59912-.96094-.77393l-1.38574-.37451c-1.46-.38672-2.15918-1.16064-2.15918-2.35889,0-1.44775,1.11035-2.60889,3.39453-2.60889a7.30823,7.30823,0,0,1,3.05859.67432l-.58691,1.80957a5.6842,5.6842,0,0,0-2.55859-.68652c-.82422,0-1.17383.26221-1.17383.67432,0,.37451.25.52393.77441.67383l1.50977.437c1.56055.44922,2.23438,1.21045,2.23438,2.38379,0,1.63525-1.43555,2.75879-3.55664,2.75879a7.36368,7.36368,0,0,1-3.12109-.73682Z"/>
            <path class="cls-5" d="M168.40137,140.55169a6.57678,6.57678,0,0,1-3.65723,1.186,4.37114,4.37114,0,1,1,0-8.7373,5.25792,5.25792,0,0,1,3.333,1.13574l-.96191,1.58545a3.65305,3.65305,0,0,0-2.334-.78662,2.43439,2.43439,0,1,0,.10059,4.86768,3.43954,3.43954,0,0,0,1.53516-.36182v-1.248h-2.03516v-1.59766h4.01953Z"/>
            <path class="cls-5" d="M172.3584,133.12493h2.4707l3.208,8.48779H175.915l-.57324-1.56006h-3.55762l-.58691,1.56006H169.0752Zm-.0498,5.39258h2.52051l-1.23535-3.32031Z"/>
            <path class="cls-5" d="M186.73731,136.42034l-2.55859,3.07031h-.3623l-2.5459-3.07031v5.19238h-2.09766v-8.48779h1.81055l3.02051,3.54492,3.02051-3.54492H188.834v8.48779h-2.09668Z"/>
            <path class="cls-5" d="M190.95606,141.61272v-8.48779h6.81543v1.82275h-4.80566v1.46h3.89453v1.76025h-3.89453v1.62256h4.80566v1.82227Z"/>
          </g>
          <line class="cls-6" x1="31.78792" y1="81.67171" x2="117.66135" y2="81.67171"/>
          <line class="cls-6" x1="150.50516" y1="81.67171" x2="209.96226" y2="81.67171"/>
          <line class="cls-7" x1="9.22983" y1="160" x2="209.96226" y2="160"/>
        </g>
      </g>
    </g>
  </g>
</svg>
